<svg xmlns="http://www.w3.org/2000/svg" xmlns:xlink="http://www.w3.org/1999/xlink" width="922" height="922" viewBox="0 0 922 922">
  <metadata><?xpacket begin="﻿" id="W5M0MpCehiHzreSzNTczkc9d"?>
<x:xmpmeta xmlns:x="adobe:ns:meta/" x:xmptk="Adobe XMP Core 5.6-c140 79.160451, 2017/05/06-01:08:21        ">
   <rdf:RDF xmlns:rdf="http://www.w3.org/1999/02/22-rdf-syntax-ns#">
      <rdf:Description rdf:about=""/>
   </rdf:RDF>
</x:xmpmeta>
                                                                                                    
                                                                                                    
                                                                                                    
                                                                                                    
                                                                                                    
                                                                                                    
                                                                                                    
                                                                                                    
                                                                                                    
                                                                                                    
                                                                                                    
                                                                                                    
                                                                                                    
                                                                                                    
                                                                                                    
                                                                                                    
                                                                                                    
                                                                                                    
                                                                                                    
                                                                                                    
                           
<?xpacket end="w"?></metadata>
<defs>
    <style>
      .cls-1 {
        fill-rule: evenodd;
        filter: url(#filter);
      }
    </style>
    <filter id="filter" x="94.344" y="25.813" width="738" height="863.468" filterUnits="userSpaceOnUse">
      <feFlood result="flood" flood-color="#fff"/>
      <feComposite result="composite" operator="in" in2="SourceGraphic"/>
      <feBlend result="blend" in2="SourceGraphic"/>
    </filter>
  </defs>
  <path id="Ellipse_1_copy" data-name="Ellipse 1 copy" class="cls-1" d="M832.344,580.414c0,102.091-104.507,184.852-233.422,184.852-0.508,0-1.011-.013-1.518-0.016v0.419h-29.5v123.6H473.969v-123.6H396.016v123.6H302.125v-123.6H114.513l26.357-61.3s55.716-2.092,90.174-12.034c20.359-5.874,26.779-20.234,28.746-30.056V252.115c-1.967-9.821-8.387-24.182-28.746-30.056-34.458-9.941-136.686-12.033-136.686-12.033l31.008-61.3H302.125V25.813h93.891V148.728h77.953V25.813h93.937V149.29C688.862,156.2,784.281,236.076,784.281,333.6c0,37.978-14.476,73.276-39.292,102.634C798.245,470.116,832.344,522.107,832.344,580.414ZM543.328,246.833v-0.1H426.121V402.676H537.93c0.289,0,.575.017,0.866,0.017s0.576-.015.866-0.017h3.666V402.6c52.113-1.882,93.639-36.027,93.639-77.885S595.441,248.715,543.328,246.833Zm30.65,239.091c-0.293,0-.582.015-0.875,0.017H426.119V660.3h147.17v-0.028c0.23,0,.458.014,0.689,0.014,60.605,0,109.735-39.033,109.735-87.183S634.583,485.924,573.978,485.924Z"/>
</svg>
